<svg xmlns="http://www.w3.org/2000/svg" xmlns:xlink="http://www.w3.org/1999/xlink" width="500" zoomAndPan="magnify" viewBox="0 0 375 374.999991" height="500" preserveAspectRatio="xMidYMid meet" version="1.0"><defs><g/><clipPath id="a7eda46f18"><path d="M 5.566406 57.863281 L 369.292969 57.863281 L 369.292969 288.863281 L 5.566406 288.863281 Z M 5.566406 57.863281 " clip-rule="nonzero"/></clipPath><clipPath id="95bcbf1424"><rect x="0" width="131" y="0" height="106"/></clipPath></defs><rect x="-37.5" width="450" fill="#ffffff" y="-37.499999" height="449.999989" fill-opacity="1"/><rect x="-37.5" width="450" fill="#166678" y="-37.499999" height="449.999989" fill-opacity="1"/><path fill="#ffffff" d="M 90.042969 250.417969 C 65.234375 250.417969 44.449219 230.789062 43.984375 205.980469 C 43.5 180.59375 64.011719 159.800781 89.285156 159.800781 C 90.015625 159.800781 90.953125 159.867188 91.941406 159.941406 L 91.996094 159.941406 C 105.289062 160.949219 117.515625 152.65625 121.511719 139.933594 C 128.984375 114.132812 152.96875 96.105469 179.824219 96.105469 C 199.246094 96.105469 217.050781 105.136719 228.683594 120.894531 C 235.265625 129.804688 246.488281 133.976562 257.292969 131.519531 C 261.886719 130.484375 266.402344 129.953125 270.6875 129.953125 C 304.207031 129.953125 331.421875 157.476562 330.910156 191.117188 C 330.410156 224.160156 302.832031 250.40625 269.777344 250.40625 L 90.042969 250.40625 Z M 90.042969 250.417969 " fill-opacity="1" fill-rule="nonzero"/><g clip-path="url(#a7eda46f18)"><path fill="#ffffff" d="M 270.6875 288.667969 L 89.285156 288.667969 C 43.207031 288.667969 5.726562 251.1875 5.726562 205.109375 C 5.726562 159.675781 42.171875 122.59375 87.367188 121.570312 C 101.863281 83.6875 138.785156 57.863281 179.816406 57.863281 C 208.828125 57.863281 236.574219 70.882812 255.3125 92.976562 C 260.492188 92.140625 265.632812 91.722656 270.679688 91.722656 C 324.980469 91.722656 369.152344 135.902344 369.152344 190.207031 C 369.152344 244.488281 324.980469 288.667969 270.6875 288.667969 Z M 89.285156 142.238281 C 54.296875 142.238281 25.894531 170.964844 26.425781 206.078125 C 26.945312 240.570312 55.738281 267.96875 90.242188 267.96875 L 269.691406 267.96875 C 312.515625 267.96875 348.042969 233.777344 348.460938 190.953125 C 348.878906 147.714844 313.824219 112.40625 270.6875 112.40625 C 265.082031 112.40625 259.265625 113.078125 253.40625 114.40625 C 249.402344 115.316406 245.238281 113.761719 242.796875 110.460938 C 227.820312 90.1875 204.871094 78.546875 179.824219 78.546875 C 145.207031 78.546875 114.300781 101.777344 104.660156 135.039062 C 103.304688 139.726562 98.855469 142.820312 93.988281 142.476562 C 91.988281 142.355469 90.648438 142.238281 89.285156 142.238281 Z M 89.285156 142.238281 " fill-opacity="1" fill-rule="nonzero"/></g><g transform="matrix(1, 0, 0, 1, 122, 134)"><g clip-path="url(#95bcbf1424)"><g fill="#166678" fill-opacity="1"><g transform="translate(18.887336, 28.499281)"><g><path d="M 2.71875 0 L 2.71875 -25.328125 L 7.75 -25.328125 L 16.421875 -12.15625 L 25.078125 -25.328125 L 30.109375 -25.328125 L 30.109375 0 L 24.6875 0 L 24.6875 -15.5625 L 17.984375 -5.421875 L 14.84375 -5.421875 L 8.140625 -15.59375 L 8.140625 0 Z M 2.71875 0 "/></g></g></g><g fill="#166678" fill-opacity="1"><g transform="translate(50.98249, 28.499281)"><g><path d="M 7.015625 0.5 C 5.953125 0.5 4.957031 0.296875 4.03125 -0.109375 C 3.101562 -0.515625 2.363281 -1.113281 1.8125 -1.90625 C 1.257812 -2.707031 0.984375 -3.675781 0.984375 -4.8125 C 0.984375 -5.925781 1.210938 -6.847656 1.671875 -7.578125 C 2.128906 -8.316406 2.726562 -8.910156 3.46875 -9.359375 C 4.21875 -9.804688 5.046875 -10.125 5.953125 -10.3125 C 6.859375 -10.507812 7.742188 -10.609375 8.609375 -10.609375 C 9.304688 -10.609375 10.007812 -10.5625 10.71875 -10.46875 C 11.4375 -10.382812 12.109375 -10.269531 12.734375 -10.125 L 12.734375 -10.75 C 12.734375 -11.59375 12.390625 -12.289062 11.703125 -12.84375 C 11.015625 -13.394531 10 -13.671875 8.65625 -13.671875 C 7.445312 -13.671875 6.320312 -13.53125 5.28125 -13.25 C 4.25 -12.976562 3.320312 -12.675781 2.5 -12.34375 L 2.5 -16.71875 C 3.195312 -16.957031 4.15625 -17.207031 5.375 -17.46875 C 6.59375 -17.738281 7.863281 -17.875 9.1875 -17.875 C 10.945312 -17.875 12.46875 -17.613281 13.75 -17.09375 C 15.03125 -16.582031 16.019531 -15.75 16.71875 -14.59375 C 17.414062 -13.445312 17.765625 -11.925781 17.765625 -10.03125 L 17.765625 -4.484375 C 17.765625 -4.023438 17.890625 -3.71875 18.140625 -3.5625 C 18.398438 -3.40625 18.6875 -3.328125 19 -3.328125 C 19.144531 -3.328125 19.296875 -3.34375 19.453125 -3.375 C 19.609375 -3.414062 19.757812 -3.445312 19.90625 -3.46875 L 19.90625 -0.1875 C 19.519531 -0.0390625 19.082031 0.078125 18.59375 0.171875 C 18.113281 0.273438 17.617188 0.328125 17.109375 0.328125 C 16.296875 0.328125 15.5625 0.171875 14.90625 -0.140625 C 14.257812 -0.453125 13.753906 -0.925781 13.390625 -1.5625 L 13.3125 -1.671875 C 12.5 -0.992188 11.570312 -0.460938 10.53125 -0.078125 C 9.488281 0.304688 8.316406 0.5 7.015625 0.5 Z M 8.828125 -3.078125 C 9.523438 -3.078125 10.207031 -3.195312 10.875 -3.4375 C 11.539062 -3.675781 12.160156 -4.050781 12.734375 -4.5625 L 12.734375 -7.203125 C 12.347656 -7.296875 11.882812 -7.378906 11.34375 -7.453125 C 10.800781 -7.523438 10.273438 -7.5625 9.765625 -7.5625 C 8.878906 -7.5625 8.054688 -7.390625 7.296875 -7.046875 C 6.535156 -6.710938 6.15625 -6.101562 6.15625 -5.21875 C 6.15625 -4.5625 6.410156 -4.039062 6.921875 -3.65625 C 7.441406 -3.269531 8.078125 -3.078125 8.828125 -3.078125 Z M 8.828125 -3.078125 "/></g></g></g><g fill="#166678" fill-opacity="1"><g transform="translate(70.485576, 28.499281)"><g><path d="M 10.390625 8.46875 C 9.035156 8.46875 7.734375 8.320312 6.484375 8.03125 C 5.242188 7.738281 4.097656 7.34375 3.046875 6.84375 L 3.046875 2.421875 C 5.066406 3.628906 7.285156 4.234375 9.703125 4.234375 C 10.734375 4.234375 11.675781 4.097656 12.53125 3.828125 C 13.394531 3.566406 14.082031 3.101562 14.59375 2.4375 C 15.113281 1.78125 15.363281 0.882812 15.34375 -0.25 L 15.34375 -1.84375 C 14.789062 -1.238281 14.039062 -0.695312 13.09375 -0.21875 C 12.15625 0.257812 11.007812 0.5 9.65625 0.5 C 7.820312 0.5 6.269531 0.0664062 5 -0.796875 C 3.738281 -1.660156 2.78125 -2.796875 2.125 -4.203125 C 1.476562 -5.617188 1.15625 -7.113281 1.15625 -8.6875 C 1.15625 -10.28125 1.476562 -11.773438 2.125 -13.171875 C 2.78125 -14.566406 3.738281 -15.695312 5 -16.5625 C 6.269531 -17.4375 7.820312 -17.875 9.65625 -17.875 C 11.25 -17.875 12.554688 -17.5625 13.578125 -16.9375 C 14.609375 -16.3125 15.390625 -15.613281 15.921875 -14.84375 L 15.921875 -17.375 L 20.375 -17.375 L 20.375 -0.46875 C 20.375 1.195312 20.09375 2.59375 19.53125 3.71875 C 18.976562 4.851562 18.234375 5.769531 17.296875 6.46875 C 16.359375 7.175781 15.289062 7.6875 14.09375 8 C 12.894531 8.3125 11.660156 8.46875 10.390625 8.46875 Z M 10.859375 -3.734375 C 11.941406 -3.734375 12.875 -4.015625 13.65625 -4.578125 C 14.445312 -5.140625 15.007812 -5.785156 15.34375 -6.515625 L 15.34375 -10.75 C 15.007812 -11.5 14.445312 -12.164062 13.65625 -12.75 C 12.875 -13.34375 11.941406 -13.640625 10.859375 -13.640625 C 9.429688 -13.640625 8.3125 -13.148438 7.5 -12.171875 C 6.695312 -11.203125 6.296875 -10.039062 6.296875 -8.6875 C 6.296875 -7.332031 6.695312 -6.164062 7.5 -5.1875 C 8.3125 -4.21875 9.429688 -3.734375 10.859375 -3.734375 Z M 10.859375 -3.734375 "/></g></g></g><g fill="#166678" fill-opacity="1"><g transform="translate(92.268259, 28.499281)"><g><path d="M 11.21875 0.5 C 9.382812 0.5 7.707031 0.15625 6.1875 -0.53125 C 4.664062 -1.21875 3.445312 -2.25 2.53125 -3.625 C 1.613281 -5 1.15625 -6.6875 1.15625 -8.6875 C 1.15625 -10.320312 1.429688 -11.71875 1.984375 -12.875 C 2.546875 -14.039062 3.269531 -14.988281 4.15625 -15.71875 C 5.050781 -16.457031 6.023438 -17 7.078125 -17.34375 C 8.128906 -17.695312 9.132812 -17.875 10.09375 -17.875 C 11.90625 -17.875 13.410156 -17.550781 14.609375 -16.90625 C 15.816406 -16.269531 16.753906 -15.425781 17.421875 -14.375 C 18.085938 -13.332031 18.5 -12.171875 18.65625 -10.890625 C 18.8125 -9.609375 18.742188 -8.332031 18.453125 -7.0625 L 6.21875 -7.0625 C 6.414062 -6.21875 6.816406 -5.535156 7.421875 -5.015625 C 8.023438 -4.492188 8.757812 -4.113281 9.625 -3.875 C 10.488281 -3.632812 11.394531 -3.515625 12.34375 -3.515625 C 13.332031 -3.515625 14.265625 -3.601562 15.140625 -3.78125 C 16.023438 -3.957031 16.84375 -4.203125 17.59375 -4.515625 L 17.59375 -0.578125 C 16.769531 -0.242188 15.828125 0.015625 14.765625 0.203125 C 13.703125 0.398438 12.519531 0.5 11.21875 0.5 Z M 6.1875 -10.3125 L 13.859375 -10.3125 C 13.929688 -10.71875 13.882812 -11.210938 13.71875 -11.796875 C 13.550781 -12.378906 13.191406 -12.898438 12.640625 -13.359375 C 12.097656 -13.816406 11.3125 -14.046875 10.28125 -14.046875 C 9.21875 -14.046875 8.28125 -13.722656 7.46875 -13.078125 C 6.664062 -12.441406 6.238281 -11.519531 6.1875 -10.3125 Z M 6.1875 -10.3125 "/></g></g></g><g fill="#166678" fill-opacity="1"><g transform="translate(0.572092, 62.785953)"><g><path d="M 2.71875 0 L 2.71875 -25.328125 L 13.140625 -25.328125 C 14.367188 -25.328125 15.578125 -25.191406 16.765625 -24.921875 C 17.960938 -24.660156 19.039062 -24.222656 20 -23.609375 C 20.96875 -22.992188 21.742188 -22.148438 22.328125 -21.078125 C 22.910156 -20.003906 23.203125 -18.671875 23.203125 -17.078125 C 23.203125 -15.628906 22.953125 -14.40625 22.453125 -13.40625 C 21.960938 -12.40625 21.300781 -11.597656 20.46875 -10.984375 C 19.632812 -10.367188 18.710938 -9.890625 17.703125 -9.546875 L 25.21875 0 L 18.96875 0 L 12.125 -8.859375 L 8.140625 -8.859375 L 8.140625 0 Z M 8.140625 -13.390625 L 13.359375 -13.390625 C 14.515625 -13.390625 15.515625 -13.664062 16.359375 -14.21875 C 17.203125 -14.769531 17.625 -15.6875 17.625 -16.96875 C 17.625 -18.269531 17.203125 -19.191406 16.359375 -19.734375 C 15.515625 -20.273438 14.515625 -20.546875 13.359375 -20.546875 L 8.140625 -20.546875 Z M 8.140625 -13.390625 "/></g></g></g><g fill="#166678" fill-opacity="1"><g transform="translate(25.358061, 62.785953)"><g><path d="M 11.21875 0.5 C 9.382812 0.5 7.707031 0.15625 6.1875 -0.53125 C 4.664062 -1.21875 3.445312 -2.25 2.53125 -3.625 C 1.613281 -5 1.15625 -6.6875 1.15625 -8.6875 C 1.15625 -10.320312 1.429688 -11.71875 1.984375 -12.875 C 2.546875 -14.039062 3.269531 -14.988281 4.15625 -15.71875 C 5.050781 -16.457031 6.023438 -17 7.078125 -17.34375 C 8.128906 -17.695312 9.132812 -17.875 10.09375 -17.875 C 11.90625 -17.875 13.410156 -17.550781 14.609375 -16.90625 C 15.816406 -16.269531 16.753906 -15.425781 17.421875 -14.375 C 18.085938 -13.332031 18.5 -12.171875 18.65625 -10.890625 C 18.8125 -9.609375 18.742188 -8.332031 18.453125 -7.0625 L 6.21875 -7.0625 C 6.414062 -6.21875 6.816406 -5.535156 7.421875 -5.015625 C 8.023438 -4.492188 8.757812 -4.113281 9.625 -3.875 C 10.488281 -3.632812 11.394531 -3.515625 12.34375 -3.515625 C 13.332031 -3.515625 14.265625 -3.601562 15.140625 -3.78125 C 16.023438 -3.957031 16.84375 -4.203125 17.59375 -4.515625 L 17.59375 -0.578125 C 16.769531 -0.242188 15.828125 0.015625 14.765625 0.203125 C 13.703125 0.398438 12.519531 0.5 11.21875 0.5 Z M 6.1875 -10.3125 L 13.859375 -10.3125 C 13.929688 -10.71875 13.882812 -11.210938 13.71875 -11.796875 C 13.550781 -12.378906 13.191406 -12.898438 12.640625 -13.359375 C 12.097656 -13.816406 11.3125 -14.046875 10.28125 -14.046875 C 9.21875 -14.046875 8.28125 -13.722656 7.46875 -13.078125 C 6.664062 -12.441406 6.238281 -11.519531 6.1875 -10.3125 Z M 6.1875 -10.3125 "/></g></g></g><g fill="#166678" fill-opacity="1"><g transform="translate(44.463121, 62.785953)"><g><path d="M 2.140625 0 L 2.140625 -17.375 L 6.59375 -17.375 L 6.59375 -15.375 C 7.050781 -15.90625 7.757812 -16.453125 8.71875 -17.015625 C 9.6875 -17.585938 10.832031 -17.875 12.15625 -17.875 C 13.457031 -17.875 14.539062 -17.628906 15.40625 -17.140625 C 16.28125 -16.660156 16.957031 -16.050781 17.4375 -15.3125 C 18.164062 -16.007812 19.015625 -16.609375 19.984375 -17.109375 C 20.960938 -17.617188 22.046875 -17.875 23.234375 -17.875 C 24.460938 -17.875 25.492188 -17.660156 26.328125 -17.234375 C 27.160156 -16.816406 27.820312 -16.269531 28.3125 -15.59375 C 28.8125 -14.914062 29.164062 -14.171875 29.375 -13.359375 C 29.59375 -12.554688 29.703125 -11.769531 29.703125 -11 L 29.703125 0 L 24.6875 0 L 24.6875 -10.671875 C 24.6875 -11.585938 24.429688 -12.285156 23.921875 -12.765625 C 23.410156 -13.253906 22.769531 -13.5 22 -13.5 C 21.320312 -13.5 20.6875 -13.328125 20.09375 -12.984375 C 19.507812 -12.648438 19.007812 -12.253906 18.59375 -11.796875 C 18.59375 -11.648438 18.597656 -11.515625 18.609375 -11.390625 C 18.628906 -11.273438 18.640625 -11.144531 18.640625 -11 L 18.640625 0 L 13.609375 0 L 13.609375 -10.671875 C 13.609375 -11.585938 13.351562 -12.285156 12.84375 -12.765625 C 12.34375 -13.253906 11.691406 -13.5 10.890625 -13.5 C 10.140625 -13.5 9.429688 -13.289062 8.765625 -12.875 C 8.109375 -12.46875 7.578125 -11.988281 7.171875 -11.4375 L 7.171875 0 Z M 2.140625 0 "/></g></g></g><g fill="#166678" fill-opacity="1"><g transform="translate(75.400385, 62.785953)"><g><path d="M 10.75 0.5 C 9.082031 0.5 7.519531 0.15625 6.0625 -0.53125 C 4.601562 -1.21875 3.421875 -2.238281 2.515625 -3.59375 C 1.609375 -4.957031 1.15625 -6.65625 1.15625 -8.6875 C 1.15625 -10.707031 1.609375 -12.398438 2.515625 -13.765625 C 3.421875 -15.128906 4.601562 -16.15625 6.0625 -16.84375 C 7.519531 -17.53125 9.082031 -17.875 10.75 -17.875 C 12.4375 -17.875 14.007812 -17.53125 15.46875 -16.84375 C 16.925781 -16.15625 18.101562 -15.128906 19 -13.765625 C 19.894531 -12.398438 20.34375 -10.707031 20.34375 -8.6875 C 20.34375 -6.65625 19.894531 -4.957031 19 -3.59375 C 18.101562 -2.238281 16.925781 -1.21875 15.46875 -0.53125 C 14.007812 0.15625 12.4375 0.5 10.75 0.5 Z M 10.75 -4.015625 C 12.195312 -4.015625 13.300781 -4.457031 14.0625 -5.34375 C 14.820312 -6.238281 15.203125 -7.351562 15.203125 -8.6875 C 15.203125 -10.039062 14.820312 -11.15625 14.0625 -12.03125 C 13.300781 -12.914062 12.195312 -13.359375 10.75 -13.359375 C 9.300781 -13.359375 8.195312 -12.914062 7.4375 -12.03125 C 6.675781 -11.15625 6.296875 -10.039062 6.296875 -8.6875 C 6.296875 -7.351562 6.675781 -6.238281 7.4375 -5.34375 C 8.195312 -4.457031 9.300781 -4.015625 10.75 -4.015625 Z M 10.75 -4.015625 "/></g></g></g><g fill="#166678" fill-opacity="1"><g transform="translate(96.169921, 62.785953)"><g><path d="M 9.703125 0.5 C 8.585938 0.5 7.550781 0.316406 6.59375 -0.046875 C 5.644531 -0.421875 4.878906 -1.039062 4.296875 -1.90625 C 3.722656 -2.78125 3.4375 -3.929688 3.4375 -5.359375 L 3.4375 -13.140625 L 0.5 -13.140625 L 0.5 -17.375 L 3.4375 -17.375 L 3.4375 -22.4375 L 8.46875 -23.625 L 8.46875 -17.375 L 13.9375 -17.375 L 13.9375 -13.140625 L 8.46875 -13.140625 L 8.46875 -6.328125 C 8.46875 -5.441406 8.691406 -4.789062 9.140625 -4.375 C 9.585938 -3.96875 10.28125 -3.765625 11.21875 -3.765625 C 12.300781 -3.765625 13.347656 -3.945312 14.359375 -4.3125 L 14.359375 -0.25 C 13.691406 -0.0078125 12.960938 0.171875 12.171875 0.296875 C 11.390625 0.429688 10.566406 0.5 9.703125 0.5 Z M 9.703125 0.5 "/></g></g></g><g fill="#166678" fill-opacity="1"><g transform="translate(110.571056, 62.785953)"><g><path d="M 11.21875 0.5 C 9.382812 0.5 7.707031 0.15625 6.1875 -0.53125 C 4.664062 -1.21875 3.445312 -2.25 2.53125 -3.625 C 1.613281 -5 1.15625 -6.6875 1.15625 -8.6875 C 1.15625 -10.320312 1.429688 -11.71875 1.984375 -12.875 C 2.546875 -14.039062 3.269531 -14.988281 4.15625 -15.71875 C 5.050781 -16.457031 6.023438 -17 7.078125 -17.34375 C 8.128906 -17.695312 9.132812 -17.875 10.09375 -17.875 C 11.90625 -17.875 13.410156 -17.550781 14.609375 -16.90625 C 15.816406 -16.269531 16.753906 -15.425781 17.421875 -14.375 C 18.085938 -13.332031 18.5 -12.171875 18.65625 -10.890625 C 18.8125 -9.609375 18.742188 -8.332031 18.453125 -7.0625 L 6.21875 -7.0625 C 6.414062 -6.21875 6.816406 -5.535156 7.421875 -5.015625 C 8.023438 -4.492188 8.757812 -4.113281 9.625 -3.875 C 10.488281 -3.632812 11.394531 -3.515625 12.34375 -3.515625 C 13.332031 -3.515625 14.265625 -3.601562 15.140625 -3.78125 C 16.023438 -3.957031 16.84375 -4.203125 17.59375 -4.515625 L 17.59375 -0.578125 C 16.769531 -0.242188 15.828125 0.015625 14.765625 0.203125 C 13.703125 0.398438 12.519531 0.5 11.21875 0.5 Z M 6.1875 -10.3125 L 13.859375 -10.3125 C 13.929688 -10.71875 13.882812 -11.210938 13.71875 -11.796875 C 13.550781 -12.378906 13.191406 -12.898438 12.640625 -13.359375 C 12.097656 -13.816406 11.3125 -14.046875 10.28125 -14.046875 C 9.21875 -14.046875 8.28125 -13.722656 7.46875 -13.078125 C 6.664062 -12.441406 6.238281 -11.519531 6.1875 -10.3125 Z M 6.1875 -10.3125 "/></g></g></g><g fill="#166678" fill-opacity="1"><g transform="translate(32.113152, 97.072625)"><g><path d="M 2.71875 0 L 2.71875 -25.328125 L 13.140625 -25.328125 C 14.367188 -25.328125 15.578125 -25.191406 16.765625 -24.921875 C 17.960938 -24.660156 19.039062 -24.222656 20 -23.609375 C 20.96875 -22.992188 21.742188 -22.148438 22.328125 -21.078125 C 22.910156 -20.003906 23.203125 -18.671875 23.203125 -17.078125 C 23.203125 -15.628906 22.953125 -14.40625 22.453125 -13.40625 C 21.960938 -12.40625 21.300781 -11.597656 20.46875 -10.984375 C 19.632812 -10.367188 18.710938 -9.890625 17.703125 -9.546875 L 25.21875 0 L 18.96875 0 L 12.125 -8.859375 L 8.140625 -8.859375 L 8.140625 0 Z M 8.140625 -13.390625 L 13.359375 -13.390625 C 14.515625 -13.390625 15.515625 -13.664062 16.359375 -14.21875 C 17.203125 -14.769531 17.625 -15.6875 17.625 -16.96875 C 17.625 -18.269531 17.203125 -19.191406 16.359375 -19.734375 C 15.515625 -20.273438 14.515625 -20.546875 13.359375 -20.546875 L 8.140625 -20.546875 Z M 8.140625 -13.390625 "/></g></g></g><g fill="#166678" fill-opacity="1"><g transform="translate(56.89912, 97.072625)"><g><path d="M 8.96875 0.5 C 7.425781 0.5 6.128906 0.1875 5.078125 -0.4375 C 4.035156 -1.0625 3.253906 -1.914062 2.734375 -3 C 2.210938 -4.082031 1.953125 -5.289062 1.953125 -6.625 L 1.953125 -17.375 L 6.984375 -17.375 L 6.984375 -7.28125 C 6.984375 -6.113281 7.273438 -5.253906 7.859375 -4.703125 C 8.453125 -4.148438 9.269531 -3.875 10.3125 -3.875 C 11.207031 -3.875 11.984375 -4.101562 12.640625 -4.5625 C 13.304688 -5.019531 13.820312 -5.515625 14.1875 -6.046875 L 14.1875 -17.375 L 19.21875 -17.375 L 19.21875 0 L 14.765625 0 L 14.765625 -2.203125 C 14.085938 -1.429688 13.265625 -0.785156 12.296875 -0.265625 C 11.335938 0.242188 10.226562 0.5 8.96875 0.5 Z M 8.96875 0.5 "/></g></g></g><g fill="#166678" fill-opacity="1"><g transform="translate(77.523911, 97.072625)"><g><path d="M 2.140625 0 L 2.140625 -17.375 L 6.59375 -17.375 L 6.59375 -15.15625 C 7.257812 -15.9375 8.078125 -16.582031 9.046875 -17.09375 C 10.015625 -17.613281 11.125 -17.875 12.375 -17.875 C 13.894531 -17.875 15.175781 -17.5625 16.21875 -16.9375 C 17.269531 -16.3125 18.066406 -15.460938 18.609375 -14.390625 C 19.160156 -13.316406 19.4375 -12.101562 19.4375 -10.75 L 19.4375 0 L 14.40625 0 L 14.40625 -10.09375 C 14.40625 -11.25 14.082031 -12.101562 13.4375 -12.65625 C 12.800781 -13.21875 12 -13.5 11.03125 -13.5 C 10.144531 -13.5 9.375 -13.269531 8.71875 -12.8125 C 8.070312 -12.351562 7.554688 -11.859375 7.171875 -11.328125 L 7.171875 0 Z M 2.140625 0 "/></g></g></g></g></g></svg>