<svg xmlns="http://www.w3.org/2000/svg" xmlns:xlink="http://www.w3.org/1999/xlink" width="500" zoomAndPan="magnify" viewBox="0 0 375 374.999991" height="500" preserveAspectRatio="xMidYMid meet" version="1.0"><defs><g/><clipPath id="bf3ea242a4"><rect x="0" width="340" y="0" height="48"/></clipPath><clipPath id="b7768f55ed"><path d="M 174 72 L 319.210938 72 L 319.210938 236 L 174 236 Z M 174 72 " clip-rule="nonzero"/></clipPath><clipPath id="6d06c6e511"><path d="M 55.960938 87 L 206 87 L 206 232 L 55.960938 232 Z M 55.960938 87 " clip-rule="nonzero"/></clipPath><clipPath id="a77d018274"><path d="M 149.71875 69.375 L 174.46875 69.375 L 174.46875 91 L 149.71875 91 Z M 149.71875 69.375 " clip-rule="nonzero"/></clipPath><clipPath id="69a9381b3e"><path d="M 252.203125 106.292969 L 271.703125 106.292969 L 271.703125 122.792969 L 252.203125 122.792969 Z M 252.203125 106.292969 " clip-rule="nonzero"/></clipPath><clipPath id="27f9016f71"><path d="M 288.710938 207.765625 L 308.210938 207.765625 L 308.210938 224.265625 L 288.710938 224.265625 Z M 288.710938 207.765625 " clip-rule="nonzero"/></clipPath><clipPath id="214bc7b197"><path d="M 64.972656 204.203125 L 84.472656 204.203125 L 84.472656 220.703125 L 64.972656 220.703125 Z M 64.972656 204.203125 " clip-rule="nonzero"/></clipPath><clipPath id="3611475a41"><path d="M 199.0625 213.882812 L 223.8125 213.882812 L 223.8125 235.632812 L 199.0625 235.632812 Z M 199.0625 213.882812 " clip-rule="nonzero"/></clipPath></defs><g transform="matrix(1, 0, 0, 1, 20, 237)"><g clip-path="url(#bf3ea242a4)"><g fill="#005197" fill-opacity="1"><g transform="translate(1.295538, 36.773771)"><g><path d="M 13.40625 0 L 7.53125 -19.140625 L 7.375 -19.140625 C 7.394531 -18.679688 7.429688 -17.992188 7.484375 -17.078125 C 7.535156 -16.160156 7.582031 -15.179688 7.625 -14.140625 C 7.664062 -13.109375 7.6875 -12.175781 7.6875 -11.34375 L 7.6875 0 L 3.0625 0 L 3.0625 -24.390625 L 10.109375 -24.390625 L 15.890625 -5.734375 L 15.984375 -5.734375 L 22.109375 -24.390625 L 29.15625 -24.390625 L 29.15625 0 L 24.328125 0 L 24.328125 -11.546875 C 24.328125 -12.316406 24.335938 -13.203125 24.359375 -14.203125 C 24.390625 -15.203125 24.425781 -16.15625 24.46875 -17.0625 C 24.519531 -17.96875 24.554688 -18.648438 24.578125 -19.109375 L 24.421875 -19.109375 L 18.140625 0 Z M 13.40625 0 "/></g></g></g><g fill="#005197" fill-opacity="1"><g transform="translate(33.510405, 36.773771)"><g><path d="M 18 0 L 16.234375 -5.8125 L 7.34375 -5.8125 L 5.578125 0 L 0 0 L 8.609375 -24.5 L 14.9375 -24.5 L 23.578125 0 Z M 15 -10.140625 L 13.234375 -15.8125 C 13.117188 -16.195312 12.96875 -16.6875 12.78125 -17.28125 C 12.601562 -17.875 12.421875 -18.476562 12.234375 -19.09375 C 12.054688 -19.707031 11.910156 -20.242188 11.796875 -20.703125 C 11.679688 -20.242188 11.523438 -19.675781 11.328125 -19 C 11.140625 -18.332031 10.957031 -17.695312 10.78125 -17.09375 C 10.601562 -16.5 10.472656 -16.070312 10.390625 -15.8125 L 8.640625 -10.140625 Z M 15 -10.140625 "/></g></g></g><g fill="#005197" fill-opacity="1"><g transform="translate(57.08348, 36.773771)"><g><path d="M 12.328125 -13.703125 L 22.015625 -13.703125 L 22.015625 -1.046875 C 20.734375 -0.628906 19.398438 -0.296875 18.015625 -0.046875 C 16.640625 0.203125 15.078125 0.328125 13.328125 0.328125 C 10.898438 0.328125 8.84375 -0.144531 7.15625 -1.09375 C 5.46875 -2.050781 4.179688 -3.460938 3.296875 -5.328125 C 2.421875 -7.203125 1.984375 -9.503906 1.984375 -12.234375 C 1.984375 -14.785156 2.472656 -16.992188 3.453125 -18.859375 C 4.441406 -20.734375 5.882812 -22.179688 7.78125 -23.203125 C 9.675781 -24.234375 11.992188 -24.75 14.734375 -24.75 C 16.023438 -24.75 17.296875 -24.609375 18.546875 -24.328125 C 19.804688 -24.046875 20.945312 -23.6875 21.96875 -23.25 L 20.25 -19.109375 C 19.507812 -19.484375 18.660156 -19.796875 17.703125 -20.046875 C 16.742188 -20.304688 15.742188 -20.4375 14.703125 -20.4375 C 13.203125 -20.4375 11.894531 -20.09375 10.78125 -19.40625 C 9.675781 -18.71875 8.820312 -17.753906 8.21875 -16.515625 C 7.613281 -15.273438 7.3125 -13.8125 7.3125 -12.125 C 7.3125 -10.539062 7.523438 -9.132812 7.953125 -7.90625 C 8.390625 -6.675781 9.070312 -5.710938 10 -5.015625 C 10.9375 -4.316406 12.160156 -3.96875 13.671875 -3.96875 C 14.398438 -3.96875 15.015625 -4.003906 15.515625 -4.078125 C 16.023438 -4.148438 16.503906 -4.226562 16.953125 -4.3125 L 16.953125 -9.390625 L 12.328125 -9.390625 Z M 12.328125 -13.703125 "/></g></g></g><g fill="#005197" fill-opacity="1"><g transform="translate(81.824364, 36.773771)"><g><path d="M 17.125 0 L 3.0625 0 L 3.0625 -24.390625 L 17.125 -24.390625 L 17.125 -20.15625 L 8.25 -20.15625 L 8.25 -14.796875 L 16.5 -14.796875 L 16.5 -10.5625 L 8.25 -10.5625 L 8.25 -4.265625 L 17.125 -4.265625 Z M 17.125 0 "/></g></g></g><g fill="#005197" fill-opacity="1"><g transform="translate(100.959762, 36.773771)"><g><path d="M 1.015625 -7.078125 L 1.015625 -11.25 L 9.984375 -11.25 L 9.984375 -7.078125 Z M 1.015625 -7.078125 "/></g></g></g><g fill="#005197" fill-opacity="1"><g transform="translate(111.953857, 36.773771)"><g><path d="M 10.171875 -24.390625 C 12.390625 -24.390625 14.21875 -24.125 15.65625 -23.59375 C 17.09375 -23.0625 18.160156 -22.253906 18.859375 -21.171875 C 19.566406 -20.097656 19.921875 -18.738281 19.921875 -17.09375 C 19.921875 -15.976562 19.707031 -15.003906 19.28125 -14.171875 C 18.863281 -13.335938 18.304688 -12.628906 17.609375 -12.046875 C 16.921875 -11.460938 16.179688 -10.988281 15.390625 -10.625 L 22.5625 0 L 16.8125 0 L 11 -9.359375 L 8.25 -9.359375 L 8.25 0 L 3.0625 0 L 3.0625 -24.390625 Z M 9.8125 -20.15625 L 8.25 -20.15625 L 8.25 -13.5625 L 9.90625 -13.5625 C 11.625 -13.5625 12.851562 -13.847656 13.59375 -14.421875 C 14.332031 -14.992188 14.703125 -15.835938 14.703125 -16.953125 C 14.703125 -18.109375 14.300781 -18.929688 13.5 -19.421875 C 12.707031 -19.910156 11.476562 -20.15625 9.8125 -20.15625 Z M 9.8125 -20.15625 "/></g></g></g><g fill="#005197" fill-opacity="1"><g transform="translate(134.509269, 36.773771)"><g><path d="M 17.125 0 L 3.0625 0 L 3.0625 -24.390625 L 17.125 -24.390625 L 17.125 -20.15625 L 8.25 -20.15625 L 8.25 -14.796875 L 16.5 -14.796875 L 16.5 -10.5625 L 8.25 -10.5625 L 8.25 -4.265625 L 17.125 -4.265625 Z M 17.125 0 "/></g></g></g><g fill="#005197" fill-opacity="1"><g transform="translate(153.644667, 36.773771)"><g><path d="M 13.40625 0 L 7.53125 -19.140625 L 7.375 -19.140625 C 7.394531 -18.679688 7.429688 -17.992188 7.484375 -17.078125 C 7.535156 -16.160156 7.582031 -15.179688 7.625 -14.140625 C 7.664062 -13.109375 7.6875 -12.175781 7.6875 -11.34375 L 7.6875 0 L 3.0625 0 L 3.0625 -24.390625 L 10.109375 -24.390625 L 15.890625 -5.734375 L 15.984375 -5.734375 L 22.109375 -24.390625 L 29.15625 -24.390625 L 29.15625 0 L 24.328125 0 L 24.328125 -11.546875 C 24.328125 -12.316406 24.335938 -13.203125 24.359375 -14.203125 C 24.390625 -15.203125 24.425781 -16.15625 24.46875 -17.0625 C 24.519531 -17.96875 24.554688 -18.648438 24.578125 -19.109375 L 24.421875 -19.109375 L 18.140625 0 Z M 13.40625 0 "/></g></g></g><g fill="#005197" fill-opacity="1"><g transform="translate(185.859535, 36.773771)"><g><path d="M 25.21875 -12.234375 C 25.21875 -10.347656 24.984375 -8.632812 24.515625 -7.09375 C 24.046875 -5.550781 23.332031 -4.222656 22.375 -3.109375 C 21.425781 -2.003906 20.222656 -1.15625 18.765625 -0.5625 C 17.304688 0.03125 15.582031 0.328125 13.59375 0.328125 C 11.601562 0.328125 9.878906 0.03125 8.421875 -0.5625 C 6.960938 -1.15625 5.757812 -2.003906 4.8125 -3.109375 C 3.863281 -4.222656 3.15625 -5.550781 2.6875 -7.09375 C 2.21875 -8.644531 1.984375 -10.367188 1.984375 -12.265625 C 1.984375 -14.785156 2.394531 -16.984375 3.21875 -18.859375 C 4.050781 -20.734375 5.328125 -22.1875 7.046875 -23.21875 C 8.773438 -24.257812 10.96875 -24.78125 13.625 -24.78125 C 16.28125 -24.78125 18.457031 -24.257812 20.15625 -23.21875 C 21.863281 -22.1875 23.132812 -20.726562 23.96875 -18.84375 C 24.800781 -16.96875 25.21875 -14.765625 25.21875 -12.234375 Z M 7.40625 -12.234375 C 7.40625 -10.523438 7.617188 -9.054688 8.046875 -7.828125 C 8.472656 -6.597656 9.140625 -5.648438 10.046875 -4.984375 C 10.960938 -4.328125 12.144531 -4 13.59375 -4 C 15.0625 -4 16.25 -4.328125 17.15625 -4.984375 C 18.070312 -5.648438 18.738281 -6.597656 19.15625 -7.828125 C 19.570312 -9.054688 19.78125 -10.523438 19.78125 -12.234375 C 19.78125 -14.785156 19.300781 -16.796875 18.34375 -18.265625 C 17.394531 -19.734375 15.820312 -20.46875 13.625 -20.46875 C 12.175781 -20.46875 10.988281 -20.132812 10.0625 -19.46875 C 9.144531 -18.8125 8.472656 -17.867188 8.046875 -16.640625 C 7.617188 -15.410156 7.40625 -13.941406 7.40625 -12.234375 Z M 7.40625 -12.234375 "/></g></g></g><g fill="#005197" fill-opacity="1"><g transform="translate(213.05282, 36.773771)"><g><path d="M 12.484375 0 L 7.3125 0 L 7.3125 -20.09375 L 0.6875 -20.09375 L 0.6875 -24.390625 L 19.109375 -24.390625 L 19.109375 -20.09375 L 12.484375 -20.09375 Z M 12.484375 0 "/></g></g></g><g fill="#005197" fill-opacity="1"><g transform="translate(232.838855, 36.773771)"><g><path d="M 17.125 0 L 3.0625 0 L 3.0625 -24.390625 L 17.125 -24.390625 L 17.125 -20.15625 L 8.25 -20.15625 L 8.25 -14.796875 L 16.5 -14.796875 L 16.5 -10.5625 L 8.25 -10.5625 L 8.25 -4.265625 L 17.125 -4.265625 Z M 17.125 0 "/></g></g></g><g fill="#005197" fill-opacity="1"><g transform="translate(251.974252, 36.773771)"><g><path d="M 1.015625 -7.078125 L 1.015625 -11.25 L 9.984375 -11.25 L 9.984375 -7.078125 Z M 1.015625 -7.078125 "/></g></g></g><g fill="#005197" fill-opacity="1"><g transform="translate(262.968347, 36.773771)"><g><path d="M 10.171875 -24.390625 C 12.390625 -24.390625 14.21875 -24.125 15.65625 -23.59375 C 17.09375 -23.0625 18.160156 -22.253906 18.859375 -21.171875 C 19.566406 -20.097656 19.921875 -18.738281 19.921875 -17.09375 C 19.921875 -15.976562 19.707031 -15.003906 19.28125 -14.171875 C 18.863281 -13.335938 18.304688 -12.628906 17.609375 -12.046875 C 16.921875 -11.460938 16.179688 -10.988281 15.390625 -10.625 L 22.5625 0 L 16.8125 0 L 11 -9.359375 L 8.25 -9.359375 L 8.25 0 L 3.0625 0 L 3.0625 -24.390625 Z M 9.8125 -20.15625 L 8.25 -20.15625 L 8.25 -13.5625 L 9.90625 -13.5625 C 11.625 -13.5625 12.851562 -13.847656 13.59375 -14.421875 C 14.332031 -14.992188 14.703125 -15.835938 14.703125 -16.953125 C 14.703125 -18.109375 14.300781 -18.929688 13.5 -19.421875 C 12.707031 -19.910156 11.476562 -20.15625 9.8125 -20.15625 Z M 9.8125 -20.15625 "/></g></g></g><g fill="#005197" fill-opacity="1"><g transform="translate(285.523759, 36.773771)"><g><path d="M 22.921875 -24.390625 L 22.921875 -8.609375 C 22.921875 -6.929688 22.550781 -5.414062 21.8125 -4.0625 C 21.070312 -2.707031 19.953125 -1.632812 18.453125 -0.84375 C 16.960938 -0.0625 15.082031 0.328125 12.8125 0.328125 C 9.582031 0.328125 7.125 -0.492188 5.4375 -2.140625 C 3.75 -3.785156 2.90625 -5.960938 2.90625 -8.671875 L 2.90625 -24.390625 L 8.0625 -24.390625 L 8.0625 -9.453125 C 8.0625 -7.441406 8.472656 -6.03125 9.296875 -5.21875 C 10.117188 -4.40625 11.335938 -4 12.953125 -4 C 14.085938 -4 15.003906 -4.191406 15.703125 -4.578125 C 16.410156 -4.972656 16.929688 -5.578125 17.265625 -6.390625 C 17.597656 -7.203125 17.765625 -8.238281 17.765625 -9.5 L 17.765625 -24.390625 Z M 22.921875 -24.390625 "/></g></g></g><g fill="#005197" fill-opacity="1"><g transform="translate(311.349039, 36.773771)"><g><path d="M 24.71875 0 L 18.140625 0 L 7.53125 -18.453125 L 7.375 -18.453125 C 7.414062 -17.679688 7.453125 -16.90625 7.484375 -16.125 C 7.523438 -15.351562 7.5625 -14.578125 7.59375 -13.796875 C 7.625 -13.023438 7.65625 -12.253906 7.6875 -11.484375 L 7.6875 0 L 3.0625 0 L 3.0625 -24.390625 L 9.59375 -24.390625 L 20.1875 -6.125 L 20.3125 -6.125 C 20.28125 -6.882812 20.25 -7.632812 20.21875 -8.375 C 20.1875 -9.125 20.15625 -9.867188 20.125 -10.609375 C 20.101562 -11.359375 20.082031 -12.101562 20.0625 -12.84375 L 20.0625 -24.390625 L 24.71875 -24.390625 Z M 24.71875 0 "/></g></g></g></g></g><g clip-path="url(#b7768f55ed)"><path fill="#005197" d="M 231.195312 226.195312 L 265.742188 226.195312 C 270.738281 226.195312 275.574219 225.4375 280.136719 224.03125 C 283.332031 231.074219 290.433594 235.976562 298.675781 235.976562 C 309.914062 235.976562 319.035156 226.867188 319.035156 215.617188 C 319.035156 208.507812 315.390625 202.257812 309.871094 198.613281 C 313.085938 192.097656 314.890625 184.769531 314.890625 177.046875 C 314.890625 153.515625 298.125 133.707031 275.953125 128.976562 C 279.558594 125.390625 281.789062 120.425781 281.789062 114.933594 C 281.789062 103.988281 272.921875 95.117188 261.972656 95.117188 C 257.648438 95.117188 253.648438 96.507812 250.390625 98.859375 C 235.597656 82.414062 214.152344 72.070312 190.285156 72.070312 C 186.925781 72.070312 183.605469 72.277344 180.347656 72.675781 C 180.539062 73.792969 180.632812 74.949219 180.632812 76.121094 C 180.632812 81.855469 178.296875 87.035156 174.519531 90.765625 L 203.578125 139.113281 C 206.214844 138.257812 209.023438 137.800781 211.9375 137.800781 C 217.496094 137.800781 222.667969 139.476562 226.980469 142.335938 L 249.054688 119.160156 C 248.621094 117.832031 248.390625 116.417969 248.390625 114.945312 C 248.390625 107.445312 254.476562 101.359375 261.972656 101.359375 C 269.472656 101.359375 275.558594 107.445312 275.558594 114.945312 C 275.558594 122.441406 269.472656 128.527344 261.972656 128.527344 C 260.449219 128.527344 258.984375 128.277344 257.613281 127.8125 L 235.367188 151.171875 C 237.761719 155.222656 239.140625 159.945312 239.140625 164.996094 C 239.140625 167.4375 238.820312 169.789062 238.21875 172.039062 L 290.730469 204.601562 C 292.960938 202.992188 295.703125 202.042969 298.667969 202.042969 C 306.164062 202.042969 312.25 208.128906 312.25 215.628906 C 312.25 223.125 306.164062 229.210938 298.667969 229.210938 C 291.167969 229.210938 285.082031 223.125 285.082031 215.628906 L 285.082031 215.429688 L 232.488281 182.820312 C 228.773438 187.105469 223.738281 190.21875 218.015625 191.527344 L 218.015625 208.757812 C 225.4375 211.207031 230.847656 218.039062 231.195312 226.195312 " fill-opacity="1" fill-rule="evenodd"/></g><g clip-path="url(#6d06c6e511)"><path fill="#166678" d="M 112.089844 226.195312 L 192.691406 226.195312 C 193.035156 218.039062 198.449219 211.207031 205.851562 208.742188 L 205.851562 191.511719 C 195.578125 189.164062 187.519531 180.996094 185.328125 170.660156 L 88.808594 210.507812 C 88.894531 211.128906 88.9375 211.757812 88.9375 212.402344 C 88.9375 219.902344 82.851562 225.988281 75.355469 225.988281 C 67.855469 225.988281 61.769531 219.902344 61.769531 212.402344 C 61.769531 204.90625 67.855469 198.820312 75.355469 198.820312 C 77.59375 198.820312 79.714844 199.363281 81.578125 200.328125 L 185.855469 157.28125 C 187.21875 152.679688 189.761719 148.585938 193.140625 145.351562 L 163.710938 96.394531 C 162.523438 96.609375 161.308594 96.722656 160.058594 96.722656 C 152.867188 96.722656 146.550781 93.042969 142.863281 87.464844 C 129.183594 97.386719 118.746094 111.488281 113.410156 127.898438 L 112.089844 127.898438 C 85.058594 127.898438 62.941406 150.015625 62.941406 177.046875 C 62.941406 183.441406 64.183594 189.554688 66.425781 195.171875 C 60.210938 198.40625 55.960938 204.90625 55.960938 212.394531 C 55.960938 223.109375 64.648438 231.796875 75.363281 231.796875 C 82.59375 231.796875 88.902344 227.839844 92.238281 221.980469 C 98.316406 224.6875 105.03125 226.195312 112.089844 226.195312 " fill-opacity="1" fill-rule="evenodd"/></g><path fill="#005197" d="M 211.9375 178.582031 C 204.4375 178.582031 198.355469 172.496094 198.355469 164.996094 C 198.355469 157.496094 204.4375 151.414062 211.9375 151.414062 C 219.4375 151.414062 225.523438 157.496094 225.523438 164.996094 C 225.523438 172.496094 219.445312 178.582031 211.9375 178.582031 " fill-opacity="1" fill-rule="evenodd"/><g clip-path="url(#a77d018274)"><path fill="#166678" d="M 166.5 72.347656 L 171.226562 80.078125 L 166.5 87.8125 L 157.941406 87.8125 L 153.21875 80.078125 L 157.941406 72.347656 L 166.5 72.347656 M 168.167969 69.375 L 156.273438 69.375 L 149.730469 80.078125 L 156.273438 90.785156 L 168.167969 90.785156 L 174.710938 80.078125 Z M 168.167969 69.375 " fill-opacity="1" fill-rule="nonzero"/></g><g clip-path="url(#69a9381b3e)"><path fill="#005197" d="M 265.390625 108.628906 L 269.101562 114.707031 L 265.390625 120.785156 L 258.664062 120.785156 L 254.949219 114.707031 L 258.664062 108.628906 L 265.390625 108.628906 M 266.699219 106.292969 L 257.351562 106.292969 L 252.210938 114.707031 L 257.351562 123.121094 L 266.699219 123.121094 L 271.84375 114.707031 Z M 266.699219 106.292969 " fill-opacity="1" fill-rule="nonzero"/></g><g clip-path="url(#27f9016f71)"><path fill="#005197" d="M 301.898438 210.101562 L 305.609375 216.179688 L 301.898438 222.253906 L 295.167969 222.253906 L 291.457031 216.179688 L 295.167969 210.101562 L 301.898438 210.101562 M 303.207031 207.765625 L 293.859375 207.765625 L 288.71875 216.179688 L 293.859375 224.59375 L 303.207031 224.59375 L 308.351562 216.179688 Z M 303.207031 207.765625 " fill-opacity="1" fill-rule="nonzero"/></g><g clip-path="url(#214bc7b197)"><path fill="#166678" d="M 78.160156 206.542969 L 81.875 212.617188 L 78.160156 218.695312 L 71.433594 218.695312 L 67.71875 212.617188 L 71.433594 206.542969 L 78.160156 206.542969 M 79.472656 204.203125 L 70.121094 204.203125 L 64.980469 212.617188 L 70.121094 221.03125 L 79.472656 221.03125 L 84.613281 212.617188 Z M 79.472656 204.203125 " fill-opacity="1" fill-rule="nonzero"/></g><g clip-path="url(#3611475a41)"><path fill="#005197" d="M 215.84375 216.859375 L 220.570312 224.589844 L 215.84375 232.320312 L 207.285156 232.320312 L 202.5625 224.589844 L 207.285156 216.859375 L 215.84375 216.859375 M 217.511719 213.882812 L 205.617188 213.882812 L 199.074219 224.589844 L 205.617188 235.292969 L 217.511719 235.292969 L 224.054688 224.589844 Z M 217.511719 213.882812 " fill-opacity="1" fill-rule="nonzero"/></g></svg>